<?xml version="1.0" encoding="UTF-8"?>
<!-- Generator: visioncortex VTracer 0.6.4 -->
<svg version="1.1" xmlns="http://www.w3.org/2000/svg" width="500" height="176">
<path d="M0 0 C165 0 330 0 500 0 C500 58.08 500 116.16 500 176 C335 176 170 176 0 176 C0 117.92 0 59.84 0 0 Z " fill="#FDFDFD" transform="translate(0,0)"/>
<path d="M0 0 C3.943 2.377 8.027 5.085 10.125 9.281 C14.165 7.444 17.295 4.83 20.711 2.035 C26.168 -1.93 30.666 -3.251 37.375 -3.156 C38.126 -3.149 38.876 -3.141 39.65 -3.133 C48.292 -2.878 55.271 -0.375 61.66 5.578 C65.531 10.079 67.439 15.662 69.125 21.281 C69.428 20.701 69.731 20.121 70.043 19.523 C75.607 9.149 81.872 2.797 92.895 -1.898 C97.1 -2.966 101.05 -3.102 105.375 -3.094 C106.64 -3.091 106.64 -3.091 107.93 -3.089 C116.732 -2.916 123.57 -0.837 130.125 5.281 C130.455 3.301 130.785 1.321 131.125 -0.719 C140.365 -0.719 149.605 -0.719 159.125 -0.719 C159.455 7.861 159.785 16.441 160.125 25.281 C162.6 20.331 162.6 20.331 165.125 15.281 C172.078 6.362 181.631 -1.172 193.125 -2.719 C196.064 -2.878 198.995 -2.904 201.938 -2.906 C202.706 -2.918 203.475 -2.931 204.268 -2.943 C215.591 -2.972 225.586 0.651 233.938 8.406 C243.492 18.502 244.125 28.618 244.125 42.281 C225.315 42.281 206.505 42.281 187.125 42.281 C188.191 49.74 188.318 50.474 193.125 55.281 C196.761 57.727 200.2 57.581 204.5 57.594 C205.786 57.611 207.073 57.627 208.398 57.645 C213.441 57.153 216.768 55.718 220.25 52.031 C220.869 51.454 221.488 50.876 222.125 50.281 C225.018 50.706 227.425 51.813 230.016 53.129 C230.725 53.487 231.434 53.844 232.164 54.213 C233.258 54.773 233.258 54.773 234.375 55.344 C235.12 55.721 235.865 56.098 236.633 56.486 C238.465 57.414 240.295 58.347 242.125 59.281 C240.894 64.634 238.324 67.739 234.125 71.281 C219.791 80.12 205.225 82.655 188.547 79.633 C182.144 77.492 177.124 73.74 172.125 69.281 C171.166 68.479 171.166 68.479 170.188 67.66 C166.49 64.337 164.414 61.113 162.422 56.547 C161.987 55.56 161.552 54.573 161.104 53.556 C160.781 52.805 160.458 52.055 160.125 51.281 C160.111 52.77 160.111 52.77 160.097 54.288 C160.056 58.033 159.99 61.777 159.917 65.521 C159.89 67.129 159.868 68.738 159.854 70.347 C159.728 83.814 158.879 97.005 149.125 107.281 C148.263 108.204 148.263 108.204 147.383 109.145 C135.349 120.804 119.955 120.744 104.242 120.559 C92.791 120.211 83.381 116.278 75.051 108.293 C71.621 104.599 70.006 102.285 69.125 97.281 C72.198 95.574 75.285 93.894 78.375 92.219 C79.248 91.733 80.12 91.248 81.02 90.748 C82.286 90.066 82.286 90.066 83.578 89.371 C84.353 88.947 85.128 88.523 85.927 88.086 C88.528 87.134 89.587 87.234 92.125 88.281 C93.561 89.522 94.998 90.762 96.434 92.004 C101.232 95.627 106.817 96.859 112.754 96.633 C118.551 95.773 123.577 93.867 127.688 89.656 C129.925 85.96 130.238 83.987 130.188 79.656 C130.178 78.653 130.169 77.65 130.16 76.617 C130.149 75.846 130.137 75.075 130.125 74.281 C129.545 74.631 128.965 74.98 128.367 75.34 C127.586 75.795 126.805 76.25 126 76.719 C125.234 77.171 124.469 77.624 123.68 78.09 C115.154 82.066 102.062 81.504 92.977 79.633 C81.406 75.362 74.492 67.016 69.125 56.281 C68.795 63.541 68.465 70.801 68.125 78.281 C59.215 78.281 50.305 78.281 41.125 78.281 C41.111 74.837 41.097 71.392 41.082 67.844 C41.051 64.491 41.012 61.138 40.972 57.786 C40.949 55.464 40.935 53.142 40.929 50.82 C40.92 47.473 40.879 44.128 40.832 40.781 C40.836 39.751 40.84 38.72 40.844 37.658 C40.714 31.171 39.704 26.134 35.125 21.281 C30.501 19.74 25.948 19.633 21.125 20.281 C18.228 22.483 16.732 24.067 15.125 27.281 C15.006 28.915 14.948 30.553 14.92 32.19 C14.9 33.211 14.88 34.232 14.859 35.284 C14.843 36.389 14.826 37.494 14.809 38.633 C14.777 40.327 14.777 40.327 14.746 42.055 C14.68 45.672 14.621 49.289 14.562 52.906 C14.519 55.354 14.476 57.802 14.432 60.25 C14.324 66.26 14.225 72.271 14.125 78.281 C5.215 78.281 -3.695 78.281 -12.875 78.281 C-12.931 73.08 -12.931 73.08 -12.988 67.773 C-13.035 64.407 -13.086 61.042 -13.137 57.676 C-13.171 55.34 -13.199 53.005 -13.221 50.669 C-13.255 47.308 -13.307 43.947 -13.363 40.586 C-13.37 39.545 -13.376 38.504 -13.383 37.432 C-13.511 31.065 -14.018 26.193 -18.688 21.434 C-21.533 19.934 -23.668 19.848 -26.875 19.844 C-27.906 19.824 -28.938 19.805 -30 19.785 C-33.578 20.403 -34.654 21.461 -36.875 24.281 C-38.731 27.389 -39.139 29.722 -39.194 33.325 C-39.214 34.326 -39.234 35.327 -39.254 36.358 C-39.266 37.431 -39.277 38.504 -39.289 39.609 C-39.308 40.714 -39.328 41.818 -39.348 42.955 C-39.408 46.481 -39.454 50.006 -39.5 53.531 C-39.538 55.922 -39.577 58.313 -39.617 60.703 C-39.715 66.562 -39.794 72.422 -39.875 78.281 C-48.785 78.281 -57.695 78.281 -66.875 78.281 C-66.875 52.211 -66.875 26.141 -66.875 -0.719 C-57.965 -0.719 -49.055 -0.719 -39.875 -0.719 C-39.875 1.921 -39.875 4.561 -39.875 7.281 C-39.215 7.281 -38.555 7.281 -37.875 7.281 C-37.875 6.621 -37.875 5.961 -37.875 5.281 C-35.574 3.59 -35.574 3.59 -32.562 1.719 C-31.576 1.099 -30.59 0.479 -29.574 -0.16 C-21.282 -4.948 -8.496 -4.018 0 0 Z " fill="#020202" transform="translate(247.875,52.71875)"/>
<path d="M0 0 C0.955 -0.008 1.91 -0.015 2.895 -0.023 C11.712 0.001 18.952 2.039 27.125 5.25 C26.522 9.757 24.759 13.109 22.562 17.062 C22.233 17.66 21.904 18.257 21.564 18.873 C20.757 20.335 19.942 21.793 19.125 23.25 C16.369 22.764 13.874 22.159 11.238 21.199 C7.778 20.144 4.921 20.017 1.312 20.062 C0.172 20.069 -0.969 20.075 -2.145 20.082 C-4.788 19.942 -4.788 19.942 -5.875 21.25 C-5.916 22.916 -5.918 24.584 -5.875 26.25 C-1.289 28.719 3.076 30.606 8.062 32.125 C16.944 35.007 23.388 39.108 28.125 47.25 C30.354 53.938 29.53 61.702 27.125 68.25 C22.97 75.7 17.076 79.579 9.125 82.25 C-6.354 85.169 -21.691 84.694 -35.062 76 C-36.342 75.095 -37.616 74.183 -38.875 73.25 C-35.41 66.773 -31.842 60.434 -27.875 54.25 C-27.044 54.744 -26.212 55.237 -25.355 55.746 C-23.725 56.707 -23.725 56.707 -22.062 57.688 C-20.444 58.645 -20.444 58.645 -18.793 59.621 C-15.163 61.647 -12.475 62.403 -8.375 62.438 C-7.215 62.459 -7.215 62.459 -6.031 62.48 C-3.578 62.387 -3.578 62.387 -0.875 60.25 C-0.208 57.793 -0.208 57.793 -0.875 55.25 C-4.272 52.875 -7.831 51.408 -11.688 49.938 C-20.034 46.507 -26.659 41.704 -31.875 34.25 C-33.813 28.436 -33.958 21.056 -31.625 15.312 C-27.273 7.696 -22.171 4.541 -14.266 1.121 C-9.488 -0.106 -4.912 -0.039 0 0 Z " fill="#020202" transform="translate(117.875,49.75)"/>
<path d="M0 0 C8.91 0 17.82 0 27 0 C27 26.07 27 52.14 27 79 C18.09 79 9.18 79 0 79 C0 52.93 0 26.86 0 0 Z " fill="#020202" transform="translate(148,52)"/>
<path d="M0 0 C2.625 0.312 2.625 0.312 4.438 1.938 C5.911 4.885 5.847 7.06 5.625 10.312 C4.305 10.973 2.985 11.633 1.625 12.312 C2.192 16.442 2.192 16.442 3.625 20.312 C3.875 23.25 3.875 23.25 3.625 26.312 C2.644 27.331 1.642 28.33 0.625 29.312 C0.109 30.468 -0.406 31.623 -0.938 32.812 C-7.329 45.786 -18.514 52.572 -31.547 57.516 C-33.485 58.162 -35.432 58.784 -37.387 59.379 C-42.817 61.076 -48.085 63.225 -53.375 65.312 C-54.273 65.577 -55.172 65.841 -56.098 66.113 C-59.273 67.785 -59.682 69.54 -60.875 72.875 C-62.389 76.812 -63.909 80.64 -65.875 84.375 C-66.416 85.413 -66.416 85.413 -66.969 86.473 C-68.762 88.818 -70.793 89.931 -73.375 91.312 C-73.848 83.426 -73.555 78.105 -69.375 71.312 C-70.912 71.131 -70.912 71.131 -72.48 70.945 C-73.841 70.776 -75.202 70.607 -76.562 70.438 C-77.236 70.359 -77.91 70.28 -78.604 70.199 C-82.478 69.708 -85.826 68.953 -89.375 67.312 C-86.306 63.771 -83.934 62.385 -79.375 61.312 C-77.124 61.419 -74.934 61.704 -72.7 62.001 C-64.367 63.163 -64.367 63.163 -56.746 60.301 C-54.636 58.582 -52.802 56.739 -50.871 54.805 C-48.621 52.559 -47.125 51.446 -44.25 50.25 C-40.687 48.701 -38.269 46.528 -35.438 43.875 C-29.114 37.978 -22.792 34.283 -14.375 32.312 C-16.866 31.625 -18.754 31.312 -21.375 31.312 C-21.705 31.972 -22.035 32.633 -22.375 33.312 C-25.437 33.937 -25.437 33.937 -28.375 34.312 C-26.886 29.994 -24.298 29.274 -20.375 27.312 C-19.174 25.287 -19.174 25.287 -18.375 23.312 C-24.037 26.526 -24.037 26.526 -28.562 31.125 C-30.375 33.312 -30.375 33.312 -33.125 33.625 C-33.867 33.522 -34.61 33.419 -35.375 33.312 C-35.117 30.953 -35.117 30.953 -34.375 28.312 C-32.695 27.047 -32.695 27.047 -30.5 26.062 C-19.713 20.6 -9.751 11.613 -3.375 1.312 C-2.375 0.313 -2.375 0.313 0 0 Z " fill="#171818" transform="translate(95.375,14.6875)"/>
<path d="M0 0 C5.05 2.866 8.61 6.708 10.676 12.164 C11.754 18.166 10.902 23.196 7.879 28.477 C5.038 32.461 1.361 34.915 -3.324 36.164 C-9.318 36.737 -14.233 36.716 -19.324 33.164 C-24.897 27.338 -26.873 22.704 -26.707 14.73 C-25.88 9.184 -22.707 5.448 -18.699 1.727 C-13.285 -1.836 -6.069 -2.183 0 0 Z " fill="#FBFBFB" transform="translate(369.32421875,73.8359375)"/>
<path d="M0 0 C4.439 2.478 6.904 5.831 8.812 10.5 C9.752 16.345 8.046 20.702 4.812 25.5 C-0.067 30.141 -4.155 30.863 -10.684 30.777 C-14.427 30.363 -16.421 29.003 -19.188 26.5 C-23.214 21.168 -24.848 17.218 -24.188 10.5 C-22.363 6.114 -19.885 2.603 -15.875 0 C-10.085 -2.355 -5.669 -2.387 0 0 Z " fill="#050505" transform="translate(169.1875,4.5)"/>
<path d="M0 0 C0.33 0 0.66 0 1 0 C1 26.07 1 52.14 1 79 C0.67 79 0.34 79 0 79 C-0.17 75.667 -0.335 72.333 -0.5 69 C-0.548 68.065 -0.595 67.131 -0.645 66.168 C-0.851 61.954 -1.025 57.762 -0.984 53.543 C-1.006 48.566 -1.985 44.735 -4.5 40.438 C-11.385 33.725 -19.669 30.868 -28.68 28.176 C-31.709 27.103 -33.696 26.212 -36 24 C-36.375 21.438 -36.375 21.438 -36 19 C-33.27 16.27 -31.684 16.701 -27.875 16.688 C-22.159 16.757 -18.181 17.697 -13 20 C-12.01 20 -11.02 20 -10 20 C-9.518 19.001 -9.036 18.002 -8.539 16.973 C-7.901 15.669 -7.263 14.366 -6.625 13.062 C-6.308 12.403 -5.991 11.744 -5.664 11.064 C-3.227 6.113 -3.227 6.113 -1 5 C-0.344 2.473 -0.344 2.473 0 0 Z " fill="#EBEBEB" transform="translate(147,52)"/>
<path d="M0 0 C0.66 0.33 1.32 0.66 2 1 C2 1.99 2 2.98 2 4 C2.66 4.66 3.32 5.32 4 6 C2.84 6.323 2.84 6.323 1.656 6.652 C-1.832 8.422 -2.2 9.928 -3.5 13.562 C-5.014 17.5 -6.534 21.327 -8.5 25.062 C-8.861 25.755 -9.222 26.447 -9.594 27.16 C-11.387 29.506 -13.418 30.619 -16 32 C-16.473 24.114 -16.18 18.792 -12 12 C-13.537 11.818 -13.537 11.818 -15.105 11.633 C-16.466 11.464 -17.827 11.295 -19.188 11.125 C-20.198 11.007 -20.198 11.007 -21.229 10.887 C-25.103 10.395 -28.451 9.64 -32 8 C-28.924 4.45 -26.561 3.098 -22 2 C-17.889 1.973 -13.813 2.419 -9.725 2.811 C-8.494 2.906 -8.494 2.906 -7.238 3.004 C-6.496 3.074 -5.754 3.145 -4.99 3.217 C-2.414 2.936 -1.612 1.958 0 0 Z " fill="#181818" transform="translate(38,74)"/>
<path d="M0 0 C2.625 0.312 2.625 0.312 4.438 1.938 C5.911 4.885 5.847 7.06 5.625 10.312 C3.645 11.303 3.645 11.303 1.625 12.312 C2.192 16.442 2.192 16.442 3.625 20.312 C3.875 23.25 3.875 23.25 3.625 26.312 C2.643 27.33 1.641 28.329 0.625 29.312 C-0.571 31.345 -0.571 31.345 -1.562 33.5 C-1.907 34.215 -2.251 34.931 -2.605 35.668 C-2.986 36.482 -2.986 36.482 -3.375 37.312 C-3.705 36.322 -4.035 35.333 -4.375 34.312 C-4.045 33.694 -3.715 33.075 -3.375 32.438 C-2.062 29.647 -2.75 28.298 -3.375 25.312 C-2.708 18.646 -2.708 18.646 -1.375 17.312 C-1.334 15.646 -1.332 13.979 -1.375 12.312 C-2.035 11.983 -2.695 11.652 -3.375 11.312 C-3.705 11.973 -4.035 12.633 -4.375 13.312 C-7.375 15.312 -7.375 15.312 -9.375 15.312 C-10.035 15.973 -10.695 16.633 -11.375 17.312 C-12.365 17.312 -13.355 17.312 -14.375 17.312 C-14.839 18.241 -14.839 18.241 -15.312 19.188 C-17.131 22.825 -18.016 23.78 -21.688 25.625 C-24.834 27.295 -26.355 28.287 -28.625 31.125 C-30.375 33.312 -30.375 33.312 -33.125 33.625 C-33.867 33.522 -34.61 33.419 -35.375 33.312 C-35.117 30.953 -35.117 30.953 -34.375 28.312 C-32.695 27.047 -32.695 27.047 -30.5 26.062 C-19.713 20.6 -9.751 11.613 -3.375 1.312 C-2.375 0.312 -2.375 0.312 0 0 Z " fill="#222323" transform="translate(95.375,14.6875)"/>
<path d="M0 0 C3.496 2.33 5.413 4.416 7.812 7.875 C7.812 9.195 7.812 10.515 7.812 11.875 C-1.757 11.875 -11.327 11.875 -21.188 11.875 C-20.188 4.875 -20.188 4.875 -17.875 2.562 C-16.988 2.006 -16.101 1.449 -15.188 0.875 C-14.589 0.463 -13.991 0.05 -13.375 -0.375 C-8.701 -1.978 -4.547 -1.605 0 0 Z " fill="#F8F8F8" transform="translate(457.1875,68.125)"/>
<path d="M0 0 C0 0.99 0 1.98 0 3 C1.32 3.33 2.64 3.66 4 4 C3.261 5.9 2.508 7.795 1.75 9.688 C1.124 11.271 1.124 11.271 0.484 12.887 C-1.027 16.057 -2.612 18.431 -5 21 C-5.99 21.33 -6.98 21.66 -8 22 C-8.473 14.114 -8.18 8.792 -4 2 C-7.63 1.67 -11.26 1.34 -15 1 C-15 0.67 -15 0.34 -15 0 C-12.876 -0.194 -10.75 -0.38 -8.625 -0.562 C-7.442 -0.667 -6.258 -0.771 -5.039 -0.879 C-2 -1 -2 -1 0 0 Z " fill="#292929" transform="translate(30,84)"/>
<path d="M0 0 C0.66 0.33 1.32 0.66 2 1 C2 1.99 2 2.98 2 4 C2.66 4.66 3.32 5.32 4 6 C3.237 6.248 2.474 6.495 1.688 6.75 C-1.236 8.11 -2.3 9.316 -4 12 C-4.33 10.02 -4.66 8.04 -5 6 C-6.65 6 -8.3 6 -10 6 C-10.33 6.99 -10.66 7.98 -11 9 C-12.98 8.34 -14.96 7.68 -17 7 C-17 5.68 -17 4.36 -17 3 C-18.65 3 -20.3 3 -22 3 C-22 2.67 -22 2.34 -22 2 C-21.44 2.046 -20.88 2.092 -20.303 2.139 C-17.766 2.339 -15.227 2.513 -12.688 2.688 C-11.806 2.76 -10.925 2.833 -10.018 2.908 C-9.17 2.963 -8.322 3.018 -7.449 3.074 C-6.669 3.132 -5.889 3.189 -5.085 3.249 C-2.454 2.935 -1.644 2.011 0 0 Z " fill="#2D2D2D" transform="translate(38,74)"/>
<path d="M0 0 C3.043 4.565 4.6 7.36 4 13 C3.014 14.014 2.012 15.012 1 16 C-0.196 18.032 -0.196 18.032 -1.188 20.188 C-1.532 20.903 -1.876 21.618 -2.23 22.355 C-2.484 22.898 -2.738 23.441 -3 24 C-3.33 23.01 -3.66 22.02 -4 21 C-3.67 20.381 -3.34 19.763 -3 19.125 C-1.687 16.334 -2.375 14.986 -3 12 C-2.611 7.646 -1.809 3.98 0 0 Z " fill="#313231" transform="translate(95,28)"/>
<path d="M0 0 C0.66 0.33 1.32 0.66 2 1 C1.34 1.66 0.68 2.32 0 3 C0.33 3.66 0.66 4.32 1 5 C-0.114 5.588 -0.114 5.588 -1.25 6.188 C-4.138 7.867 -4.138 7.867 -6 10.688 C-8 13 -8 13 -10.75 13.312 C-11.864 13.158 -11.864 13.158 -13 13 C-12.773 10.664 -12.773 10.664 -12 8 C-10.039 6.523 -10.039 6.523 -7.625 5.375 C-4.553 3.884 -2.29 2.556 0 0 Z " fill="#383838" transform="translate(73,35)"/>
<path d="M0 0 C0.66 0.99 1.32 1.98 2 3 C4.05 4.192 4.05 4.192 6 5 C5.67 5.66 5.34 6.32 5 7 C2.36 7 -0.28 7 -3 7 C-3.33 7.66 -3.66 8.32 -4 9 C-7.063 9.625 -7.063 9.625 -10 10 C-8.888 6.776 -8.106 6.055 -5 4.438 C-4.01 3.963 -3.02 3.489 -2 3 C-1.34 2.01 -0.68 1.02 0 0 Z " fill="#3F3F3F" transform="translate(77,39)"/>
<path d="M0 0 C0.33 0.66 0.66 1.32 1 2 C1.66 2 2.32 2 3 2 C3 2.66 3 3.32 3 4 C1.701 4.309 1.701 4.309 0.375 4.625 C-3.685 6.279 -6.404 8.465 -9 12 C-9.688 14.112 -9.688 14.112 -10 16 C-11.98 16.33 -13.96 16.66 -16 17 C-13.245 12.294 -10.072 9.118 -5.906 5.613 C-3.821 3.848 -1.892 1.971 0 0 Z " fill="#303030" transform="translate(88,22)"/>
<path d="M0 0 C0.66 0.99 1.32 1.98 2 3 C1.01 4.485 1.01 4.485 0 6 C-0.167 8.625 -0.167 8.625 0 11 C1.32 11.66 2.64 12.32 4 13 C-0.875 17 -0.875 17 -2 17 C-2.054 15.104 -2.093 13.209 -2.125 11.312 C-2.148 10.257 -2.171 9.201 -2.195 8.113 C-1.999 4.977 -1.331 2.824 0 0 Z " fill="#424242" transform="translate(24,89)"/>
<path d="M0 0 C0 3 0 3 -1.688 5 C-4.006 7.005 -6.354 8.468 -9 10 C-9.66 10.66 -10.32 11.32 -11 12 C-11 7.952 -9.768 6.91 -7 4 C-4.726 2.49 -2.43 1.262 0 0 Z " fill="#DCDCDC" transform="translate(77,37)"/>
<path d="M0 0 C1 3 1 3 1 7 C-0.32 7.33 -1.64 7.66 -3 8 C-3.66 6.02 -4.32 4.04 -5 2 C-3.35 1.34 -1.7 0.68 0 0 Z " fill="#181818" transform="translate(33,80)"/>
<path d="M0 0 C2.31 0 4.62 0 7 0 C7 0.66 7 1.32 7 2 C8.65 2.33 10.3 2.66 12 3 C11.67 4.32 11.34 5.64 11 7 C9.02 6.34 7.04 5.68 5 5 C5 3.68 5 2.36 5 1 C3.35 1 1.7 1 0 1 C0 0.67 0 0.34 0 0 Z " fill="#3E3E3E" transform="translate(16,76)"/>
<path d="M0 0 C1.98 0.66 3.96 1.32 6 2 C4.812 4 4.812 4 3 6 C0.312 6.25 0.312 6.25 -2 6 C-1.125 1.125 -1.125 1.125 0 0 Z " fill="#565656" transform="translate(62,42)"/>
<path d="M0 0 C2 2 2 2 2.125 5.125 C2.084 6.074 2.043 7.023 2 8 C1.01 8.495 1.01 8.495 0 9 C0 8.34 0 7.68 0 7 C-0.99 7 -1.98 7 -3 7 C-3 5.02 -3 3.04 -3 1 C-2.01 1.495 -2.01 1.495 -1 2 C-0.67 1.34 -0.34 0.68 0 0 Z " fill="#3F3F3F" transform="translate(97,33)"/>
<path d="M0 0 C2.64 0 5.28 0 8 0 C7.67 0.99 7.34 1.98 7 3 C5.258 3.766 5.258 3.766 3.125 4.25 C2.077 4.505 2.077 4.505 1.008 4.766 C-1 5 -1 5 -4 4 C-3.67 3.34 -3.34 2.68 -3 2 C-2.34 2.33 -1.68 2.66 -1 3 C-0.67 2.01 -0.34 1.02 0 0 Z " fill="#BCBCBC" transform="translate(74,45)"/>
<path d="M0 0 C0.66 0.33 1.32 0.66 2 1 C1.67 1.33 1.34 1.66 1 2 C1.99 2.33 2.98 2.66 4 3 C4.33 3.99 4.66 4.98 5 6 C2.36 5.67 -0.28 5.34 -3 5 C-3 4.01 -3 3.02 -3 2 C-2.01 1.34 -1.02 0.68 0 0 Z " fill="#434343" transform="translate(10,78)"/>
<path d="M0 0 C0 0.66 0 1.32 0 2 C-1.65 2.33 -3.3 2.66 -5 3 C-5 3.66 -5 4.32 -5 5 C-6.32 5 -7.64 5 -9 5 C-8.67 4.34 -8.34 3.68 -8 3 C-7.34 3.33 -6.68 3.66 -6 4 C-6.33 3.01 -6.66 2.02 -7 1 C-4.537 -0.231 -2.72 -0.072 0 0 Z " fill="#202020" transform="translate(33,79)"/>
<path d="M0 0 C0.99 0.33 1.98 0.66 3 1 C-0.625 5.875 -0.625 5.875 -4 7 C-3.436 3.73 -2.5 2.174 0 0 Z " fill="#242424" transform="translate(83,57)"/>
<path d="M0 0 C2.31 0 4.62 0 7 0 C6.34 1.32 5.68 2.64 5 4 C5 3.34 5 2.68 5 2 C2.69 2.66 0.38 3.32 -2 4 C-1.34 2.68 -0.68 1.36 0 0 Z " fill="#292929" transform="translate(27,87)"/>
</svg>
